<svg xmlns="http://www.w3.org/2000/svg" viewBox="0 0 32 32"><path d="M16.09 2h-.17a14 14 0 0 0-9.61 3.9l-.41.41a1 1 0 0 0 0 1.41.92.92 0 0 0 .21.13.93.93 0 0 0 .33.38A18.75 18.75 0 0 0 10.08 10a17.31 17.31 0 0 0-1 5h-5a11.77 11.77 0 0 1 .87-3.61 9.83 9.83 0 0 1 .43-.93 1 1 0 1 0-1.77-.92q-.27.53-.51 1.08A14 14 0 1 0 16.09 2zm9.18 21.62A19 19 0 0 0 21.92 22a17.31 17.31 0 0 0 1-5h2a1 1 0 0 0 0-2H23a17.31 17.31 0 0 0-1-5 19 19 0 0 0 3.35-1.6 12 12 0 0 1 0 15.24zM4.05 17H9a17.31 17.31 0 0 0 1 5 19 19 0 0 0-3.35 1.6 12 12 0 0 1-2.6-6.6zM17 5.44a18.2 18.2 0 0 1 2.18 3.23A15.88 15.88 0 0 1 17 9zm1.65-1.13a12.06 12.06 0 0 1 5.17 2.6 16.43 16.43 0 0 1-2.68 1.22 19.59 19.59 0 0 0-2.49-3.82zM15 9a15.88 15.88 0 0 1-2.18-.3A18.2 18.2 0 0 1 15 5.44zm2 2a17.63 17.63 0 0 0 3-.43A15.38 15.38 0 0 1 21 15h-4zm4 6a15.38 15.38 0 0 1-1 4.46 17.63 17.63 0 0 0-3-.46v-4zm-6 9.56a18.2 18.2 0 0 1-2.18-3.23A15.88 15.88 0 0 1 15 23zM17 23a15.88 15.88 0 0 1 2.18.3A18.2 18.2 0 0 1 17 26.56zm-2-2a17.63 17.63 0 0 0-3 .43A15.38 15.38 0 0 1 11 17h4zm-4.14 2.84a19.59 19.59 0 0 0 2.49 3.82 12.06 12.06 0 0 1-5.17-2.6 16.43 16.43 0 0 1 2.68-1.19zm10.28 0a16.43 16.43 0 0 1 2.68 1.22 12.06 12.06 0 0 1-5.17 2.6 19.59 19.59 0 0 0 2.49-3.79zm-13-17a11.84 11.84 0 0 1 5.17-2.6 19.59 19.59 0 0 0-2.49 3.82 16.9 16.9 0 0 1-2.64-1.15zm3.86 3.7a17.63 17.63 0 0 0 3 .46v4h-4a15.38 15.38 0 0 1 1-4.46z"/></svg>